<svg width="11" height="7" viewBox="0 0 11 7" fill="none" xmlns="http://www.w3.org/2000/svg">
<path d="M10.0204 1.5722C10.3197 1.28592 10.3197 0.821771 10.0204 0.535491C9.721 0.24921 9.23565 0.24921 8.93629 0.535491L10.0204 1.5722ZM5.23926 5.10769L4.69722 5.62605L5.23926 6.1444L5.7813 5.62605L5.23926 5.10769ZM1.54223 0.535491C1.24287 0.24921 0.757511 0.24921 0.45815 0.535491C0.15879 0.821771 0.15879 1.28592 0.45815 1.5722L1.54223 0.535491ZM8.93629 0.535491L4.69722 4.58934L5.7813 5.62605L10.0204 1.5722L8.93629 0.535491ZM5.7813 4.58934L1.54223 0.535491L0.45815 1.5722L4.69722 5.62605L5.7813 4.58934Z" fill="#288C96"/>
</svg>
