<svg width="11" height="11" viewBox="0 0 11 11" fill="none" xmlns="http://www.w3.org/2000/svg">
<g opacity="0.8">
<path fill-rule="evenodd" clip-rule="evenodd" d="M1.22721 1.22494C1.35144 1.10071 1.55286 1.10071 1.67709 1.22494L9.77488 9.32274C9.89911 9.44697 9.89911 9.64838 9.77488 9.77261C9.65065 9.89684 9.44924 9.89684 9.32501 9.77261L1.22721 1.67482C1.10298 1.55059 1.10298 1.34917 1.22721 1.22494Z" fill="#8C8C8C" stroke="#8C8C8C" stroke-width="0.25" stroke-linecap="round"/>
<path fill-rule="evenodd" clip-rule="evenodd" d="M9.77311 1.22428C9.89734 1.34851 9.89734 1.54993 9.7731 1.67415L1.67525 9.77166C1.55102 9.89589 1.3496 9.89589 1.22537 9.77165C1.10114 9.64742 1.10115 9.446 1.22538 9.32178L9.32324 1.22427C9.44747 1.10004 9.64889 1.10004 9.77311 1.22428Z" fill="#8C8C8C" stroke="#8C8C8C" stroke-width="0.25" stroke-linecap="round"/>
</g>
</svg>
