<svg width="10" height="10" viewBox="0 0 10 10" fill="none" xmlns="http://www.w3.org/2000/svg">
<path d="M4.56699 0.75C4.75944 0.416667 5.24056 0.416667 5.43301 0.75L8.89711 6.75C9.08957 7.08333 8.849 7.5 8.4641 7.5H1.5359C1.151 7.5 0.910435 7.08333 1.10289 6.75L4.56699 0.75Z" fill="#FF3D00"/>
<path d="M5.07175 5.51H4.65175V2.96H5.07175V5.51ZM4.86175 5.93C4.94508 5.93 5.01508 5.96 5.07175 6.02C5.13175 6.07667 5.16175 6.14667 5.16175 6.23C5.16175 6.31333 5.13008 6.385 5.06675 6.445C5.00675 6.50167 4.93841 6.53 4.86175 6.53C4.78508 6.53 4.71508 6.50167 4.65175 6.445C4.59175 6.385 4.56175 6.31333 4.56175 6.23C4.56175 6.14667 4.59008 6.07667 4.64675 6.02C4.70675 5.96 4.77841 5.93 4.86175 5.93Z" fill="white"/>
</svg>
