<svg width="11" height="11" viewBox="0 0 11 11" fill="none" xmlns="http://www.w3.org/2000/svg">
<path d="M11 5.5C11 8.53757 8.53757 11 5.5 11C2.46243 11 0 8.53757 0 5.5C0 2.46243 2.46243 0 5.5 0C8.53757 0 11 2.46243 11 5.5Z" fill="#288C96"/>
<path d="M5.70106 7.17314H5.09806L4.86406 2.61914H5.92606L5.70106 7.17314ZM4.81006 8.46014C4.81006 8.29814 4.86706 8.16014 4.98106 8.04614C5.09506 7.92614 5.23306 7.86614 5.39506 7.86614C5.55706 7.86614 5.69506 7.92614 5.80906 8.04614C5.92906 8.16014 5.98906 8.29814 5.98906 8.46014C5.98906 8.62214 5.92906 8.76014 5.80906 8.87414C5.69506 8.98814 5.55706 9.04514 5.39506 9.04514C5.23306 9.04514 5.09506 8.98814 4.98106 8.87414C4.86706 8.76014 4.81006 8.62214 4.81006 8.46014Z" fill="#FCFAF8"/>
</svg>
