<svg width="25" height="25" viewBox="0 0 25 25" fill="none" xmlns="http://www.w3.org/2000/svg">
<path d="M25 12.5C25 19.4036 19.4036 25 12.5 25C5.59644 25 0 19.4036 0 12.5C0 5.59644 5.59644 0 12.5 0C19.4036 0 25 5.59644 25 12.5Z" fill="#288C96"/>
<path fill-rule="evenodd" clip-rule="evenodd" d="M17.6417 8.23305C18.0652 8.58744 18.1213 9.21812 17.7669 9.6417L11.9104 16.6417C11.7278 16.86 11.4607 16.9902 11.1761 16.9995C10.8916 17.0088 10.6166 16.8963 10.42 16.6904L7.27655 13.3963C6.89527 12.9967 6.91008 12.3637 7.30963 11.9824C7.70918 11.6012 8.34217 11.616 8.72345 12.0155L11.0945 14.5002L16.233 8.35834C16.5874 7.93476 17.2181 7.87866 17.6417 8.23305Z" fill="#FCFAF8"/>
</svg>
